<?xml version="1.0" encoding="UTF-8"?>
<svg width="49px" height="49px" viewBox="0 0 49 49" version="1.1" xmlns="http://www.w3.org/2000/svg" xmlns:xlink="http://www.w3.org/1999/xlink">
    <!-- Generator: Sketch 42 (36781) - http://www.bohemiancoding.com/sketch -->
    <title>Geography Quiz</title>
    <desc>Created with Sketch.</desc>
    <defs></defs>
    <g id="Page-1" stroke="none" stroke-width="1" fill="none" fill-rule="evenodd">
        <g id="v10" transform="translate(-488.000000, -4496.000000)" stroke-width="3" stroke="#C982C4">
            <g id="Geography-Quiz" transform="translate(490.000000, 4498.000000)">
                <g id="Group-37">
                    <g id="Page-1">
                        <g id="-">
                            <g id="Group">
                                <g id="Group-37">
                                    <circle id="Oval-5" cx="22.5" cy="22.5" r="22.5"></circle>
                                    <path d="M6.75,6.75 L16.3210857,6.75 C18.4904235,6.75 20.2490193,8.51730372 20.2490193,10.6875 C20.2490193,12.8621212 18.4903301,14.625 16.3210857,14.625" id="Rectangle-23" stroke-linecap="round"></path>
                                    <path d="M18,14.625 L23.0710857,14.625 C25.2404235,14.625 26.9990193,16.3923037 26.9990193,18.5625 C26.9990193,20.7371212 25.2403301,22.5 23.0710857,22.5 L1.125,22.5" id="Rectangle-23"></path>
                                    <path d="M32.0634703,33.75 C29.8883132,33.75 28.125,31.9826963 28.125,29.8125 C28.125,27.6378788 29.8891167,25.875 32.0634703,25.875 L43.8766849,25.875" id="Rectangle-24"></path>
                                    <path d="M32.6266849,41.625 L26.4384703,41.625 C24.2633132,41.625 22.5,39.8576963 22.5,37.6875 C22.5,35.5128788 24.2641167,33.75 26.4384703,33.75 L31.5016849,33.75" id="Rectangle-24" stroke-linecap="round"></path>
                                </g>
                            </g>
                        </g>
                    </g>
                </g>
            </g>
        </g>
    </g>
</svg>