<?xml version="1.0" encoding="UTF-8"?> <svg xmlns="http://www.w3.org/2000/svg" xmlns:xlink="http://www.w3.org/1999/xlink" width="608" height="632" viewBox="0 0 608 632"><defs><linearGradient id="c" x1="62.432%" x2="34.462%" y1="5.036%" y2="97.724%"><stop offset="0%" stop-color="#1194F5"></stop><stop offset="100%" stop-color="#1194F5"></stop></linearGradient><path id="b" d="M203.623 493.091L172.31 544.29a8.636 8.636 0 0 1-11.5 3.077 7.816 7.816 0 0 1-2.928-10.94l35.853-58.62a8.636 8.636 0 0 1 11.5-3.078l6.29 3.429c.182.098.32.245.41.416l.04-.067c15.838 3.085 32.234 4.704 49.025 4.704 134.945 0 244.34-104.604 244.34-233.64C505.34 120.534 395.945 15.93 261 15.93S16.66 120.534 16.66 249.57c0 84.406 46.807 158.357 116.955 199.416l-8.333 13.803C50.155 418.972 0 339.872 0 249.57 0 111.737 116.854 0 261 0c144.146 0 261 111.737 261 249.57 0 137.835-116.854 249.571-261 249.571-19.712 0-38.914-2.09-57.377-6.05z"></path><filter id="a" width="130.1%" height="128.6%" x="-15%" y="-9.8%"><feOffset dy="25" in="SourceAlpha" result="shadowOffsetOuter1"></feOffset><feGaussianBlur in="shadowOffsetOuter1" result="shadowBlurOuter1" stdDeviation="22"></feGaussianBlur><feColorMatrix in="shadowBlurOuter1" values="0 0 0 0 0 0 0 0 0 0 0 0 0 0 0 0 0 0 0.267263986 0"></feColorMatrix></filter><linearGradient id="d" x1="162.483%" x2="41.668%" y1="38.695%" y2="69.674%"><stop offset="0%" stop-color="#4592C4"></stop><stop offset="100%" stop-color="#215991"></stop></linearGradient><linearGradient id="e" x1="105.65%" x2="51.61%" y1="17.464%" y2="63.672%"><stop offset="0%" stop-color="#53BCFF"></stop><stop offset="100%" stop-color="#1E5F9E"></stop></linearGradient><linearGradient id="f" x1="50%" x2="50%" y1="-25.46%" y2="100%"><stop offset="0%"></stop><stop offset="100%" stop-color="#FFF"></stop></linearGradient><linearGradient id="g" x1="50%" x2="50%" y1="9.829%" y2="100%"><stop offset="0%" stop-color="#C63C5B"></stop><stop offset="100%" stop-color="#941C2E" stop-opacity=".022"></stop></linearGradient><linearGradient id="h" x1="50%" x2="54.308%" y1="46.259%" y2="51.585%"><stop offset="0%"></stop><stop offset="100%" stop-color="#FFF"></stop></linearGradient><linearGradient id="i" x1="50%" x2="50%" y1="0%" y2="100%"><stop offset="0%" stop-color="#FFF"></stop><stop offset="100%" stop-color="#FFF" stop-opacity=".331"></stop></linearGradient><linearGradient id="j" x1="50%" x2="50%" y1="0%" y2="100%"><stop offset="0%" stop-color="#27C6FB"></stop><stop offset="100%" stop-color="#1194F5"></stop></linearGradient><linearGradient id="k" x1="-8.048%" x2="235.067%" y1="50%" y2="50%"><stop offset="0%" stop-color="#CBEDFF" stop-opacity="0"></stop><stop offset="100%" stop-color="#9CD7FF"></stop></linearGradient><linearGradient id="l" x1="50%" x2="50%" y1="0%" y2="100%"><stop offset="0%" stop-color="#FFF2E0"></stop><stop offset="100%" stop-color="#FFE1BD"></stop></linearGradient><linearGradient id="m" x1="50%" x2="50%" y1="-26.435%" y2="100%"><stop offset="0%" stop-color="#C63C5B"></stop><stop offset="100%" stop-color="#941C2E"></stop></linearGradient><linearGradient id="n" x1="50%" x2="50%" y1="0%" y2="100%"><stop offset="0%" stop-color="#91AFC0"></stop><stop offset="100%" stop-color="#58778C"></stop></linearGradient><linearGradient id="o" x1="50%" x2="50%" y1="-37.919%" y2="100%"><stop offset="0%" stop-color="#004594"></stop><stop offset="100%" stop-color="#00215B"></stop></linearGradient><linearGradient id="p" x1="50%" x2="50%" y1="0%" y2="100%"><stop offset="0%" stop-color="#C63C5B"></stop><stop offset="100%" stop-color="#941C2E"></stop></linearGradient><linearGradient id="q" x1="50%" x2="50%" y1="0%" y2="100%"><stop offset="0%" stop-color="#C63C5B"></stop><stop offset="100%" stop-color="#941C2E"></stop></linearGradient><linearGradient id="r" x1="50%" x2="50%" y1="-49.408%" y2="100%"><stop offset="0%" stop-color="#026492"></stop><stop offset="100%" stop-color="#013459"></stop></linearGradient><linearGradient id="s" x1="50%" x2="50%" y1="0%" y2="100%"><stop offset="0%" stop-color="#FFEAD5"></stop><stop offset="100%" stop-color="#FFD1AB"></stop></linearGradient><linearGradient id="t" x1="50%" x2="50%" y1="-104.591%" y2="100%"><stop offset="0%" stop-color="#58408F"></stop><stop offset="100%" stop-color="#2C1E56"></stop></linearGradient><linearGradient id="u" x1="50%" x2="50%" y1="-60.24%" y2="100%"><stop offset="0%" stop-color="#27C6FB"></stop><stop offset="100%" stop-color="#1194F5" stop-opacity="0"></stop></linearGradient><linearGradient id="v" x1="0%" x2="80.594%" y1="50%" y2="50%"><stop offset="0%" stop-color="#D7E2FF" stop-opacity="0"></stop><stop offset="100%" stop-color="#AEC1FF"></stop></linearGradient><linearGradient id="w" x1="50%" x2="50%" y1="0%" y2="100%"><stop offset="0%" stop-color="#00D1ED"></stop><stop offset="100%" stop-color="#00A4D6"></stop></linearGradient><linearGradient id="x" x1="50%" x2="50%" y1="0%" y2="100%"><stop offset="0%" stop-color="#266BCD"></stop><stop offset="100%" stop-color="#11399E"></stop></linearGradient><linearGradient id="y" x1="50%" x2="50%" y1="0%" y2="100%"><stop offset="0%" stop-color="#C63C5B"></stop><stop offset="100%" stop-color="#941C2E"></stop></linearGradient><linearGradient id="z" x1="50%" x2="50%" y1="0%" y2="100%"><stop offset="0%" stop-color="#27C6FB"></stop><stop offset="100%" stop-color="#1194F5"></stop></linearGradient><linearGradient id="A" x1="50%" x2="50%" y1="0%" y2="100%"><stop offset="0%" stop-color="#4592C4"></stop><stop offset="100%" stop-color="#215991"></stop></linearGradient><linearGradient id="B" x1="72.62%" x2="50%" y1="-71.141%" y2="100%"><stop offset="0%" stop-color="#026492"></stop><stop offset="100%" stop-color="#013459"></stop></linearGradient><linearGradient id="C" x1="50%" x2="50%" y1="0%" y2="100%"><stop offset="0%" stop-color="#FFF2E0"></stop><stop offset="100%" stop-color="#FFE1BD"></stop></linearGradient><linearGradient id="D" x1="50%" x2="50%" y1="-127.659%" y2="100%"><stop offset="0%" stop-color="#58408F"></stop><stop offset="100%" stop-color="#2C1E56"></stop></linearGradient><path id="E" d="M2.853 1.58c-.159.06-.558.12-.975.18C1.878 1.76.668.622.17.363.687.442 1.66.58 2.277.58"></path><linearGradient id="F" x1=".032%" x2="100.016%" y1="49.98%" y2="49.98%"><stop offset="0%" stop-color="#F6931D"></stop><stop offset="100%" stop-color="#F6931D"></stop></linearGradient></defs><g fill="none" fill-rule="evenodd"><g fill-rule="nonzero" transform="translate(43 18)"><use fill="#000" filter="url(#a)" xlink:href="#b"></use><use fill="url(#c)" xlink:href="#b"></use></g><path fill="#1194F5" d="M276.596 453.997l-6.997-23.81s10.635-45.268-11.753-47.303c-21.264-1.932-15.562 38.841-14.892 43.2-.729-4.564-8.446-49.812-26.945-42.925-20.703 7.711 12.552 49.653 12.552 49.653-7.46-9.69-26.68-24.027-33.447-8.854-2.95 6.613 3.373 12.774 11.443 17.615-5.163-1.222-10.469-1.81-12.18.29-4.768 5.852 4.985 12.673 23.734 13.05 6.794.134 10.236-1.277 11.873-3.128l.37.118 46.242 2.094z" opacity=".265"></path><path fill="#FFF" d="M241.914 455.02s-23.236-9.007-17.633-16.771c3.534-4.898 10.359 3.422 10.359 3.422s-8.981-11.78-1.211-15.37c8.066-3.73 12.393 9.849 12.393 9.849s-3-11.9 3.142-13.58c6.143-1.678 6.61 11.9 6.61 11.9s7.933-10.704 12.656-2.169c4.287 7.744-8.725 23.184-8.725 23.184" opacity=".32"></path><path fill="#083F71" d="M413.353 444.978c.4-4.282-9.192-4.29-16.553-3.513 9.783-5.568 18.314-12.785 15.087-20.008-6.751-15.112-28.721 1.546-36.163 11.198 0 0 33.183-41.773 12.523-49.452-18.457-6.859-26.156 38.207-26.883 42.752.666-4.34 6.356-44.951-14.862-43.026-22.337 2.027-18.708 70.827-18.708 70.827s84.164 6.174 85.56-8.778"></path><g><path fill="#FFF" d="M361.87 456.137s23.236-9.039 17.634-16.83c-3.533-4.914-10.36 3.434-10.36 3.434s8.981-11.822 1.211-15.425c-8.066-3.741-12.393 9.884-12.393 9.884s3-11.94-3.14-13.625c-6.144-1.685-6.61 11.94-6.61 11.94s-7.932-10.742-12.656-2.175c-4.287 7.771 8.725 23.264 8.725 23.264" opacity=".32"></path><path fill="#18BDF7" d="M98.878 290.932c-1.732 8.2-7.148 15.048-14.415 18.698l-2.054-4.132a22.703 22.703 0 0 0 11.966-15.53l4.503.964z"></path><path stroke="#00A4D6" stroke-width="5.5" d="M458.871 40.93c0 3.877-3.124 7.022-6.98 7.022-3.855 0-6.98-3.145-6.98-7.022 0-3.877 3.125-7.02 6.98-7.02 3.856 0 6.98 3.143 6.98 7.02z"></path><path stroke="#00A4D6" stroke-width="3.127" d="M595.762 256.573c0 6.065-4.886 10.98-10.915 10.98-6.028 0-10.914-4.915-10.914-10.98s4.886-10.978 10.914-10.978c6.029 0 10.915 4.913 10.915 10.978z"></path><path fill="url(#d)" d="M275.199 416.454H182.66l10.052-39.75 2.278-9.015 4.422-17.457h59.035l4.422 17.457 2.279 9.015z" transform="translate(73 33)"></path><path fill="#001D32" d="M338.148 409.704h-72.436l2.278-9.016h67.88z" opacity=".233"></path><path fill="url(#e)" d="M456.33 93.014V356.54c0 6.268-5.073 11.357-11.321 11.357H11.65C5.385 367.897.33 362.808.33 356.54V93.014c0-6.269 5.055-11.357 11.32-11.357H445.01c6.248 0 11.32 5.088 11.32 11.357" transform="translate(73 33)"></path><path fill="#215991" d="M383.71 460.437H220.143c-3.925 0-7.106-3.2-7.106-7.148 0-3.948 3.18-7.148 7.106-7.148h163.565c3.925 0 7.107 3.2 7.107 7.148 0 3.948-3.182 7.148-7.107 7.148"></path><path fill="#013459" d="M73.686 355.299H529.32v-199.96H73.686z"></path><path fill="url(#f)" d="M228.906 354.907c-5.766 0-10.486-4.745-10.486-10.547 0-5.8 4.72-10.546 10.486-10.546 5.766 0 10.485 4.746 10.485 10.546 0 5.802-4.72 10.547-10.485 10.547" opacity=".178" transform="translate(73 33)"></path><path fill="#FFF" fill-opacity=".42" d="M513.654 284.322H236.786c-3.036 0-5.498-2.477-5.498-5.53V166.205c0-3.054 2.462-5.53 5.498-5.53h276.868c3.036 0 5.496 2.476 5.496 5.53v112.587c0 3.053-2.46 5.53-5.496 5.53" opacity=".338"></path><path fill="url(#g)" d="M438.43 193.875v46.996a3.79 3.79 0 0 1-3.785 3.791H168.739a3.79 3.79 0 0 1-3.786-3.791V137.644c24.559 0 36.788 9.234 43.958 21.367.469.777.904 1.567 1.306 2.376 12.129 23.085 8.477 54.732 35.146 54.732.989 0 1.927-.12 2.815-.355a7.815 7.815 0 0 0 1.641-.54c17.942-7.6 15.144-61.538 47.057-61.15 6.818.084 11.91 2.713 15.931 6.908.385.422.77.843 1.14 1.298 14.289 16.867 14.49 54.463 36.435 61.287 7.907 2.46 14.893-.878 21.794-6.386.436-.354.888-.708 1.324-1.097 14.59-12.183 29.098-33.01 51.613-27.905.653.152 1.307.32 1.977.506 3.568 1.044 7.337 2.73 11.34 5.19" transform="translate(73 33)"></path><path fill="#273A6A" d="M511.447 217.388c-4.774.067-8.424 1.685-11.356 4.297-5.43 4.836-8.344 13.093-11.192 21.164-4.272 12.082-8.678 24.552-21.56 24.552-.685 0-1.407-.034-2.143-.102-8.394-.825-14.576-7.7-20.02-17.12-3.384-5.83-6.483-12.655-9.632-19.648-8.913-19.664-18.143-40.003-35.13-40.475-.2 0-.385-.017-.57-.017-5.14 0-9.347 1.972-12.898 5.241-7.187 6.589-11.76 18.468-16.233 30.095-6.617 17.205-13.452 34.999-28.88 35.353-11.09.236-16.133-3.977-20.656-11.964-1.742-3.1-3.417-6.774-5.327-10.97-3.484-7.684-7.838-17.238-15.043-28.36-4.842-7.447-10.99-12.182-17.59-15.047-17.79-7.802-38.73-2.09-45.264.05v-1.769c7.002-2.224 26.569-7.262 43.957-.657 7.589 2.881 14.759 7.987 20.287 16.514 7.287 11.205 11.66 20.827 15.177 28.561 1.979 4.348 3.67 8.072 5.445 11.139 4.255 7.397 8.929 11.054 18.98 10.818 14.308-.337 20.639-16.817 27.358-34.274 4.555-11.846 9.195-23.945 16.65-30.786 3.953-3.623 8.694-5.78 14.64-5.612 18.061.489 27.491 21.316 36.623 41.47 3.114 6.84 6.13 13.53 9.43 19.243 5.228 9.133 11.09 15.755 18.862 16.53 13.268 1.315 17.491-10.65 21.964-23.338 2.78-7.903 5.627-15.957 10.787-21.097 3.283-3.302 7.521-5.392 13.3-5.476l.034 1.685z"></path><path fill="url(#h)" d="M441.477 283.648H298.62c-2.583 0-4.675-2.105-4.675-4.703v-17.69c0-2.597 2.092-4.703 4.675-4.703h142.857c2.581 0 4.674 2.106 4.674 4.703v17.69c0 2.598-2.093 4.703-4.674 4.703M441.477 316.394H298.62c-2.583 0-4.675-2.104-4.675-4.703v-17.69c0-2.596 2.092-4.702 4.675-4.702h142.857c2.581 0 4.674 2.106 4.674 4.703v17.69c0 2.598-2.093 4.702-4.674 4.702" opacity=".1" transform="translate(73 33)"></path><path fill="#1194F5" d="M221.148 220.518H90.868c-3.036 0-5.499-2.476-5.499-5.53v-48.783c0-3.053 2.463-5.53 5.498-5.53h130.281c3.036 0 5.498 2.477 5.498 5.53v48.782c0 3.055-2.462 5.53-5.498 5.53"></path><path fill="url(#i)" d="M116.183 49.044h-7.008a1.386 1.386 0 0 1-1.382-1.39V10.696c0-.769.619-1.39 1.382-1.39h7.008c.764 0 1.382.621 1.382 1.39v36.958c0 .767-.618 1.39-1.382 1.39zm13.271 0h-6.7a1.542 1.542 0 0 1-1.537-1.545V1.547a1.54 1.54 0 0 1 1.537-1.545h6.7c.848 0 1.537.691 1.537 1.545V47.5c0 .853-.689 1.545-1.537 1.545zm-120.824 0h-6.7A1.542 1.542 0 0 1 .392 47.5V1.547A1.54 1.54 0 0 1 1.93.002H8.63c.848 0 1.536.691 1.536 1.545V47.5c0 .853-.688 1.545-1.536 1.545zm13.62 0h-7.088a1.346 1.346 0 0 1-1.342-1.35V12.97c0-.744.6-1.348 1.342-1.348h7.087c.74 0 1.342.604 1.342 1.348v34.724c0 .745-.601 1.35-1.342 1.35zm13.23 0h-6.7a1.542 1.542 0 0 1-1.537-1.545V1.547A1.54 1.54 0 0 1 28.78.002h6.701c.848 0 1.536.691 1.536 1.545V47.5c0 .853-.688 1.545-1.536 1.545zm13.82 0h-7.49c-.63 0-1.141-.514-1.141-1.147V23.114c0-.633.51-1.147 1.14-1.147h7.49c.63 0 1.141.514 1.141 1.147v24.783c0 .633-.51 1.147-1.14 1.147zm13.03 0h-6.7a1.542 1.542 0 0 1-1.537-1.545V1.547A1.54 1.54 0 0 1 55.63.002h6.701c.848 0 1.536.691 1.536 1.545V47.5c0 .853-.688 1.545-1.536 1.545zm13.578 0h-7.007a1.386 1.386 0 0 1-1.382-1.39V10.696c0-.769.618-1.39 1.382-1.39h7.007c.764 0 1.382.621 1.382 1.39v36.958c0 .767-.618 1.39-1.382 1.39zm13.272 0h-6.7a1.542 1.542 0 0 1-1.537-1.545V1.547A1.54 1.54 0 0 1 82.479.002h6.701c.848 0 1.536.691 1.536 1.545V47.5c0 .853-.688 1.545-1.536 1.545zm13.62 0h-7.09c-.74 0-1.342-.605-1.342-1.35V12.97c0-.744.601-1.348 1.342-1.348h7.09c.74 0 1.341.604 1.341 1.348v34.724c0 .745-.601 1.35-1.342 1.35z" transform="translate(90.56 166.395)"></path><path fill="#FFF" d="M221.148 284.956H90.868c-3.036 0-5.499-2.476-5.499-5.53v-48.783c0-3.054 2.463-5.53 5.498-5.53h130.281c3.036 0 5.498 2.476 5.498 5.53v48.784c0 3.053-2.462 5.529-5.498 5.529M221.148 349.394H90.868c-3.036 0-5.499-2.475-5.499-5.528V295.08c0-3.053 2.463-5.53 5.498-5.53h130.281c3.036 0 5.498 2.477 5.498 5.53v48.785c0 3.053-2.462 5.528-5.498 5.528" opacity=".2"></path><path fill="#941C2E" d="M219.526 232.875a2.66 2.66 0 0 0-2.652 2.668c0 .487.14.937.364 1.33L195.646 261.4a2.618 2.618 0 0 0-2.086.037l-23.24-22.972a2.66 2.66 0 0 0-2.41-3.764 2.66 2.66 0 0 0-2.654 2.667c0 .406.099.786.26 1.132l-29.89 32.45a2.621 2.621 0 0 0-1.52-.485c-.47 0-.902.132-1.282.346l-16.355-21.424c.312-.438.501-.97.501-1.552a2.66 2.66 0 0 0-2.652-2.667 2.66 2.66 0 0 0-2.652 2.667c0 .477.134.918.352 1.304l-18.323 23.893a2.596 2.596 0 0 0-.927-.177 2.66 2.66 0 0 0-2.652 2.669 2.66 2.66 0 0 0 2.652 2.667 2.66 2.66 0 0 0 2.652-2.667c0-.53-.156-1.021-.42-1.436l18.26-23.81c.324.144.681.226 1.058.226.277 0 .538-.054.787-.133l16.568 21.702c-.14.324-.22.682-.22 1.06a2.661 2.661 0 0 0 2.653 2.669 2.66 2.66 0 0 0 2.651-2.67c0-.275-.053-.54-.132-.79l30.053-32.625a2.6 2.6 0 0 0 1.232.318c.46 0 .89-.13 1.266-.339l23.156 22.888a2.64 2.64 0 0 0-.341 1.284 2.66 2.66 0 0 0 2.652 2.67 2.661 2.661 0 0 0 2.653-2.67c0-.5-.146-.965-.385-1.364l21.573-24.506c.32.136.672.214 1.042.214a2.66 2.66 0 0 0 2.652-2.67 2.66 2.66 0 0 0-2.652-2.667M207.64 299.13H92.93a2.402 2.402 0 0 1-2.394-2.41v-.237a2.401 2.401 0 0 1 2.394-2.408h114.71a2.401 2.401 0 0 1 2.393 2.408v.238a2.402 2.402 0 0 1-2.394 2.41M195.757 308.155H92.806a2.277 2.277 0 0 1-2.272-2.283v-.49a2.278 2.278 0 0 1 2.272-2.282h102.951a2.276 2.276 0 0 1 2.27 2.283v.489a2.275 2.275 0 0 1-2.27 2.283M219.666 317.18H93.047a2.52 2.52 0 0 1-2.513-2.528 2.521 2.521 0 0 1 2.513-2.528h126.619a2.521 2.521 0 0 1 2.513 2.528 2.52 2.52 0 0 1-2.513 2.527M184.02 326.203H92.677a2.148 2.148 0 0 1-2.142-2.153v-.747c0-1.19.96-2.155 2.142-2.155h91.343c1.184 0 2.142.966 2.142 2.155v.747c0 1.19-.958 2.153-2.142 2.153M208.884 335.23H92.942a2.415 2.415 0 0 1-2.407-2.422v-.212a2.414 2.414 0 0 1 2.407-2.422h115.942a2.415 2.415 0 0 1 2.407 2.422v.212a2.416 2.416 0 0 1-2.407 2.421M219.666 344.254H93.047a2.521 2.521 0 0 1-2.513-2.528 2.521 2.521 0 0 1 2.513-2.528h126.619a2.521 2.521 0 0 1 2.513 2.528 2.521 2.521 0 0 1-2.513 2.528"></path><path fill="url(#j)" d="M218.129 286.47c0 16.53-13.318 29.926-29.735 29.926-16.434 0-29.752-13.396-29.752-29.926 0-16.516 13.318-29.91 29.752-29.91 2.362 0 4.657.268 6.868.807 12.363 2.934 21.744 13.649 22.766 26.727.067.792.1 1.582.1 2.376" transform="translate(73 33)"></path><path fill="#941C2E" d="M291.028 317.094l-29.634 2.375 6.868-29.1c12.363 2.932 21.744 13.647 22.766 26.725"></path><path fill="url(#k)" d="M284.342 261.31h-57.227a1.966 1.966 0 0 1-1.96-1.97c0-1.09.878-1.972 1.96-1.972h57.227c1.082 0 1.958.883 1.958 1.971a1.965 1.965 0 0 1-1.958 1.972zm-8.443 7.839h-48.926a1.822 1.822 0 0 1-1.818-1.829v-.286c0-1.01.814-1.828 1.818-1.828h48.926c1.003 0 1.816.818 1.816 1.828v.286a1.821 1.821 0 0 1-1.816 1.829zm-11.716 7.837h-37.43c-.882 0-1.597-.72-1.597-1.606v-.73c0-.886.715-1.605 1.598-1.605h37.43c.88 0 1.596.72 1.596 1.606v.73c0 .886-.716 1.605-1.597 1.605zm20.159 7.84h-57.227a1.966 1.966 0 0 1-1.96-1.972c0-1.088.878-1.971 1.96-1.971h57.227c1.082 0 1.958.883 1.958 1.971a1.965 1.965 0 0 1-1.958 1.972zm-6.59 7.838h-50.746a1.854 1.854 0 0 1-1.849-1.86v-.221c0-1.03.828-1.862 1.85-1.862h50.745c1.02 0 1.85.832 1.85 1.862v.22c0 1.028-.83 1.86-1.85 1.86zm6.59 7.837h-57.227a1.965 1.965 0 0 1-1.96-1.971c0-1.087.878-1.97 1.96-1.97h57.227c1.082 0 1.958.883 1.958 1.97 0 1.09-.876 1.971-1.958 1.971zm-11.528 7.838h-45.896a1.767 1.767 0 0 1-1.762-1.77v-.398c0-.98.789-1.773 1.762-1.773h45.896c.973 0 1.76.794 1.76 1.773v.397c0 .978-.787 1.771-1.76 1.771zm11.528 7.84h-57.227a1.965 1.965 0 0 1-1.96-1.972c0-1.087.878-1.971 1.96-1.971h57.227c1.082 0 1.958.884 1.958 1.971 0 1.09-.876 1.972-1.958 1.972z" transform="translate(73 33)"></path><path fill="#3B5069" d="M191.686 462.148c0 2.312-16.65 4.188-37.193 4.188-20.538 0-37.188-1.876-37.188-4.188 0-2.313 16.65-4.189 37.188-4.189 20.543 0 37.193 1.876 37.193 4.19" opacity=".889"></path><path fill="#FFE1BD" d="M150.67 328.645l-17.706-14.312s-4.155 10.07-.86 20.63c1.622 5.191-.102 8.883.773 11.344.817 2.3 6.821 34.98 6.486 37.388-.332 2.408-2.977 9.187-3.88 16.269-1.087 8.52-.212 36.17-1.037 43.527-.824 7.357 5.937 8.435 6.249 5.946 2.66-21.28 10.234-54.523 11.152-65.15.918-10.63-.019-30.03-1.176-55.642"></path><path fill="#FCCB95" d="M151.217 349.54l-7.134 17.603c3.31 5.331 5.302 11.67 5.699 18.136.206 3.359-.009 6.734.164 10.095.011.24.052.492.119.728.893-5.008 1.55-9.133 1.78-11.817.65-7.509.372-19.412-.254-34.774-.126.008-.25.005-.374.028"></path><path fill="#FFE1BD" d="M141.703 442.599s-1.434 7.733-.977 8.702c.459.97 2.09 3.783 3.715 4.775 1.708 1.04 5.46 2.234 5.768 2.698.308.46.345 1.142-.176 1.575-1.345 1.116-3.712 1.702-5.275 1.482-5.066-.718-5.64-2.95-8.589-3.24-.509-.048-1.43.729-2.853.041-1.42-.69-2.132-1.978-2.042-3.211.158-2.124 1.3-3.898 2.104-5.485.806-1.59 1.23-8.776 1.23-8.776"></path><path fill="#594A5F" d="M150.435 460.71c.352-.642.424-1.6.076-1.826-.483-.316-2.198-1.397-3.187-1.827-.99-.43-2.551-.792-1.996-.509.552.285-.428 1.419-1.344 1.385-3.168-.12-5.552-2.177-7.363-2.588-2.616-.59-3.777-3.653-3.904-4.149-.485.326-1.57 2.838-1.783 3.627-.193.71-.538 2.012-.322 2.743.151.505.483 1.521.352 2.602 0 0 .521.382 1.885.631.864.157 2.013-.018 2.013-.018l.185-1.65s.708-.044 1.613.123c.905.164 2.396.993 2.484 1.094.372.425.68 1.208 1.163 1.44 1.28.609 2.561.885 4.173.94 3.397.119 5.352-.92 5.955-2.018"></path><path fill="url(#l)" d="M103.14 426.073c-.378-.41-4.405-1.026-6.301-1.8-1.804-.738-4.006-3.146-4.44-4.17-.433-1.027-.39-6.25-.358-8.442.226-15.107 2.628-52.038 2.942-60.88.544-15.37-1.598-31.204-7.723-55.804l-22.047-16.665s-6.013 11.517-3.852 22.453c1.255 6.343 6.505 7.268 7.416 9.728.912 2.462 14.55 42.157 14.55 42.157s-2.49 8.636-2.545 18.069c-.047 8.056 3.828 32.307 4.595 41.557.097 1.806.45 6.131-.065 7.513-.634 1.697-2.267 3.697-2.163 5.827.062 1.234.96 2.403 2.516 2.871 1.555.469 2.41-.441 2.942-.47 3.084-.158 3.958 1.965 9.286 1.91 1.641-.017 4.013-.954 5.263-2.265.482-.506.36-1.178-.017-1.59" transform="translate(73 33)"></path><path fill="#594A5F" d="M176.617 460.959c.283-.69.236-1.65-.153-1.822-.537-.238-2.445-1.051-3.523-1.328-1.075-.276-2.735-.4-2.127-.202.608.199-.263 1.471-1.215 1.576-3.288.36-6.009-1.32-7.933-1.451-2.778-.19-3.825-3.055-4.02-3.529-.458.396-1.802 3.057-1.924 3.87-.109.734-.302 2.075.013 2.768.22.478.689 1.434.69 2.524 0 0 .589.3 2.03.342.912.025 2.078-.324 2.078-.324l-.017-1.661s.724-.152 1.68-.125c.957.029 2.143.507 2.725.939.454.338.936.91 1.47 1.04 1.545.372 2.652.473 4.327.284 3.523-.4 5.413-1.724 5.899-2.901"></path><path fill="#FFE1BD" d="M211.337 264.49c1.093.318 4.673-.93 5.596-2.417.297-.477.483-1.034.418-1.595.54-.639 1.469-2.899-.146-2.427 1.665-1.12 2.087-2.82 2.538-4.726.15-.64-.587-.831-1.354.436-1.067 1.76-2.725 2.767-4.826 3.24-.134-.35.332-.463.678-1.204.384-.823.133-1.396-.233-1.532-.276-.103-.904.836-1.119 1.018l-2.44 2.084c-.895.767-1.362 1.311-1.771 2.426-.067.184-.494 2.071.31 1.809"></path><path fill="#FFE1BD" d="M158.245 281.918c8.214-.096 22.922-1.51 24.944-1.91 7.966-1.57 28.316-15.606 28.316-15.606s.387-3.274-2.715-4.18c-5.162 4.212-23.641 9.55-26.104 11.056-1.594.976-27.433-.087-27.433-.087"></path><path fill="#013459" d="M130.89 271.766s-3.49 9.46-4.63 16.947l8.443 1.336v-12.03"></path><path fill="#2C1E56" d="M175.967 318.035L108.47 329.57a1.343 1.343 0 0 1-1.548-1.106l-6.176-36.562a1.35 1.35 0 0 1 1.099-1.559l67.497-11.534a1.34 1.34 0 0 1 1.548 1.104l6.176 36.562a1.35 1.35 0 0 1-1.099 1.559"></path><path fill="#39297F" d="M173.663 315.708l-63.738 11.16a1.172 1.172 0 0 1-1.35-.964l-5.384-31.873a1.18 1.18 0 0 1 .958-1.36l63.738-11.16a1.172 1.172 0 0 1 1.35.964l5.384 31.873a1.178 1.178 0 0 1-.958 1.36"></path><path fill="#4C4199" d="M113.263 323.895l-1.065.178a1.008 1.008 0 0 1-1.163-.829l-4.638-27.454a1.014 1.014 0 0 1 .826-1.17l1.065-.179a1.008 1.008 0 0 1 1.163.831l4.638 27.453a1.014 1.014 0 0 1-.826 1.17M118.987 322.792l-1.065.179a1.01 1.01 0 0 1-1.164-.83l-4.637-27.454a1.013 1.013 0 0 1 .826-1.17l1.065-.178a1.01 1.01 0 0 1 1.163.829l4.638 27.455a1.014 1.014 0 0 1-.826 1.17M124.71 321.69l-1.065.178a1.008 1.008 0 0 1-1.162-.829l-4.639-27.455a1.014 1.014 0 0 1 .826-1.169l1.065-.179a1.01 1.01 0 0 1 1.163.83l4.639 27.454a1.014 1.014 0 0 1-.826 1.17M130.434 320.587l-1.065.179a1.01 1.01 0 0 1-1.163-.83l-4.638-27.454a1.014 1.014 0 0 1 .825-1.17l1.066-.178a1.008 1.008 0 0 1 1.162.829l4.64 27.455a1.014 1.014 0 0 1-.827 1.169M136.158 319.484l-1.065.18a1.01 1.01 0 0 1-1.164-.832l-4.637-27.453a1.016 1.016 0 0 1 .826-1.17l1.065-.178a1.008 1.008 0 0 1 1.163.83l4.638 27.454a1.014 1.014 0 0 1-.826 1.17M141.882 318.382l-1.066.179a1.008 1.008 0 0 1-1.162-.831l-4.639-27.455a1.015 1.015 0 0 1 .826-1.17l1.065-.178a1.01 1.01 0 0 1 1.163.83l4.639 27.456a1.015 1.015 0 0 1-.826 1.169M147.605 317.28l-1.065.178a1.01 1.01 0 0 1-1.163-.83l-4.639-27.455a1.015 1.015 0 0 1 .826-1.17l1.066-.178a1.008 1.008 0 0 1 1.162.83l4.639 27.455a1.015 1.015 0 0 1-.826 1.17M153.33 316.177l-1.066.177a1.008 1.008 0 0 1-1.164-.83l-4.637-27.454a1.013 1.013 0 0 1 .826-1.17l1.065-.178a1.01 1.01 0 0 1 1.163.83l4.638 27.454a1.016 1.016 0 0 1-.826 1.17M159.053 315.073l-1.066.178a1.007 1.007 0 0 1-1.162-.829l-4.639-27.454a1.014 1.014 0 0 1 .826-1.17l1.065-.178a1.01 1.01 0 0 1 1.163.83l4.639 27.453a1.014 1.014 0 0 1-.826 1.17M164.776 313.97l-1.065.179a1.01 1.01 0 0 1-1.163-.83l-4.639-27.454a1.014 1.014 0 0 1 .826-1.17l1.066-.178a1.008 1.008 0 0 1 1.162.83l4.639 27.454a1.014 1.014 0 0 1-.826 1.17M170.5 312.868l-1.065.178a1.01 1.01 0 0 1-1.165-.829l-4.636-27.454a1.013 1.013 0 0 1 .825-1.17l1.066-.178a1.01 1.01 0 0 1 1.162.829l4.64 27.454a1.014 1.014 0 0 1-.827 1.17"></path><path fill="url(#m)" d="M63.754 278.235c-6.086 5.285-8.421 14.049-7.197 23.404.323 2.475 2.81 9.28 3.193 11.753.873 5.63 2.665 13.917 2.56 20.339 8.168 5.958 24.756 5.436 32.263.99.836-7.76.68-13.93.088-24.685-.893-16.226-8.088-31.354-8.233-32.706" transform="translate(73 33)"></path><path fill="url(#n)" d="M83.683 234.548l.552-1.087s2.78-.645 5.446.94c3.563 2.115 11.003 3.362 11.003 3.362s.571 8.548-.347 11.827c0 0-2.47-.389-9.795.41-.332.036-.67.08-1.01.132-.101.493-.252.996-.448 1.524-1.422 3.904-2.424 6.708-2.88 11.09-.31 2.896 0 7.35.401 12.3.074.845.474 2.403.402 3.246-.037.495-.256.917-.638 1.265-.875.86-2.57 1.392-4.43 1.722-6.05 1.1-15.617.368-18.314.899-2.533.514-5.14-.35-5.14-1.908 0-1.08.985-1.687 1.076-3.811.2-4.658.055-15.252-.803-19.984-1.786-9.914-2.278-15.8-1.038-26.891l18.479-5.278c1.422.238.802 4.6 2.223 4.84.637.1 3.082 2.24 5.261 5.402z" transform="translate(73 33)"></path><path fill="#FFE1BD" d="M157.287 237.563c-1.811-3.488-4.683-8.423-11.55-7.74-6.868.685-12.748 5.04-12.665 10.216.083 5.176 3.568 11.41 4.911 14.992 1.342 3.58.773 8.905.773 8.905l15.222-.55s-.395-4.679.533-6.448c.52-.99 2.561-2.843 4.925-4.765 1.032-.84 1.866-2.592 1.248-5.325-.923-4.086-1.256-5.883-1.85-7.08-.425-.862-1.154-1.445-1.547-2.205"></path><path fill="url(#o)" d="M84.008 232.441c-.923-1.099-2.338-1.65-3.154-2.833-.77-1.115-1.266-2.783-1.086-4.145.111-.839.538-1.589.91-2.344 1.655-3.356 1.76-5.528-.603-8.241-.772-.887-1.538-1.822-1.932-2.934-.356-1.006-.634-2.103.336-2.713.675-.425 1.216-.47 1.753.017.376.34 1.463 3.545 1.652 1.346.185-2.106.977-2.637-.86-6.417-.217-.448-1.234-2.209-1.081-2.611 2.358.451 3.166 1.076 4.132 2.593 1.056-1.19-2.027-9.89-11.523-9.652-2.4.06-4.879.219-7.013 1.31-2.134 1.088-4.511 3.01-4.369 4.94-3.364.65-3.836 4.101-4.097 5.387a17.065 17.065 0 0 0-.2 5.591c.357 2.745 1.372 5.365 1.91 8.083.44 2.211.561 4.658-.308 6.764-.834 2.025-2.83 3.126-3.841 5.1-1.287 2.506-1.203 5.609.112 8.116 1.312 2.5 2.953 4.142 2.524 7.212-.139.998-1.025 5.615 3.213 9.366 1.736 1.533 5.001 2.328 7.26 1.976 2.256-.352 3.944-.795 5.948-1.889 3.548-1.938 6.71-3.188 9.004-8.336 1.3-2.917-.603-3.323.555-6.312.65-1.673 2.037-3.062 2.214-4.92.148-1.537-.417-3.113-1.352-4.323a3.966 3.966 0 0 0-.104-.131" transform="translate(73 33)"></path><path fill="#3B5069" d="M409.684 459.486c0 1.59 23.89 2.883 53.362 2.883 29.467 0 53.357-1.292 53.357-2.883 0-1.59-23.89-2.882-53.357-2.882-29.472 0-53.362 1.291-53.362 2.882"></path><path fill="#FFE1BD" d="M439.884 444.48s-.291 7.593.103 9.332c.31 1.37 4.54 1.504 5.054.778.516-.728 1.17-9.539 1.17-9.539"></path><path fill="#3A3A3A" d="M446.212 455.826c0 1.46-.403 3.839-.403 3.839h-5.112l-.25-.858s-1.66.858-2.96.858h-4.315c-3.157 0-4.951-.405-5.032-.964-.333-2.337 3.441-2.23 4.423-2.23 2.82 0 5.875-1.327 6.54-2.77.484-1.045.27-1.31.854-1.114 0 0 .524.115.874.762.538.993 1.56 1.658 2.667 1.46.634-.11 1.269-.351 1.728-.837 0 0 .986.393.986 1.854"></path><path fill="#FFE1BD" d="M493.035 445.416s1.397 3.783 2.008 5.045c.612 1.262 4.77-.293 4.982-1.159.211-.868-3.164-7.37-3.164-7.37"></path><path fill="#3A3A3A" d="M501.568 450.012c.538 1.357 1.335 3.986 1.335 3.986l-3.875 2.323-.76-.576s-.853 1.394-2.04 2.143c-.877.555-2.822 1.365-3.834 1.598-3.54.812-6.273.42-6.555-.07-1.169-2.047 3.523-3.17 4.435-3.536 2.62-1.052 3.82-3.605 3.91-5.192.063-1.15-.233-1.316.38-1.351 0 0 1.194-.202 1.903 1.589.047-.012 2.794-.504 3.503-2.267 0 0 1.062-.003 1.598 1.353"></path><path fill="url(#p)" d="M393.764 311.216h4.178s-4.832 14.663-6.802 21.27c-1.966 6.59-2.51 16.911-2.683 20.693-.036.771.02 1.592.152 2.452 2.426-.96 6.262-.381 9.498 1.918.18.133.382.283.58.433.098.066.197.15.296.216 3.094 2.282 6.436 5.21 8.934 9.022 8.506 12.914 13.552 32.435 18.316 43.503-4.035 2.413-6.65 3.245-6.65 3.245l-.613-1.083c-.43-.797-.876-1.614-1.34-2.445l-.017-.017c0-.017-.032-.067-.065-.133l-.476-.835a359.752 359.752 0 0 0-3.118-5.328 511.14 511.14 0 0 0-1.204-2.008l-.019-.017a.117.117 0 0 0-.033-.067c-7-11.538-15.467-24.186-20.952-32.536-1.722-2.62-3.15-4.818-4.146-6.424a.138.138 0 0 0-.022-.033c-.005-.005-.01-.01-.013-.016a.056.056 0 0 1-.014-.034 10.645 10.645 0 0 1-.812-1.599 1.128 1.128 0 0 0-.02-.056c-.03-.081-.069-.159-.096-.226-.132-.333-.23-.631-.264-.849a33.743 33.743 0 0 1-.098-.515c0-.017-.017-.05-.017-.084-.675-3.439-2.252-9.261-4.173-16.08-2.359 6.003-4.39 11.24-5.266 13.67v.016a2.334 2.334 0 0 1-.213.423c.139.48.267.971.386 1.472.54 2.234.56 4.71 1.11 7.233 3.262 14.928-3.354 38.873-4.699 51.211-.21.015-.419.014-.613.012-4.31.02-6.763-.507-6.763-.507l.009-1.249c.35-19.149-1.774-50.464-2.165-60.359-.015-.395-.01-2.488-.005-4.326-.008-.285-.007-.577.002-.878.003-1.01.004-1.817 0-2.011-.025-1.178.114-2.047.383-2.655.84-10.327 2.569-36.99 2.879-39.86.333-3.245 1.033-7.972 2.754-8.531 7.771-2.492 22.956 3.765 23.894 13.972z" transform="translate(73 33)"></path><path fill="url(#q)" d="M393.706 367.536c-.48-.118-.977-.317-1.473-.55-1.918-.932-3.772-2.696-4.814-4.31-.017-.036-.05-.05-.032-.084-.216-.315-.449-.765-.647-1.198-.033-.1-.083-.2-.115-.284a4.351 4.351 0 0 1-.267-.849c-.031-.165-.065-.332-.097-.514 0-.017-.017-.052-.017-.084-.695-3.545-2.348-9.62-4.352-16.709-1.14-4.01-2.384-8.338-3.623-12.699-3.773-13.098-7.33-25.946-7.23-29.706.365-13.515 15.966-13.744 23.444-8.451 3.144 2.246 3.954 6.108 4.006 9.669.065 3.345.361 47.26.494 56.432.016.232.016.448.016.648.017.25.017.467.017.666.15 7.108-2.447 8.739-5.31 8.023z" transform="translate(73 33)"></path><path fill="#F4D4B3" d="M412.947 292.165s-1.932-.314-2.11-.157c-.178.157-.733.47-.733.47v.373a.802.802 0 0 0-.14.022c-.09.043-1.408.893-1.54.997-.134.105-1.746 1.946-1.746 1.946s.265.245.871.064c.609-.177 1.555-1.34 1.999-1.666.204-.152.7-.47 1.178-.772.618-.115 1.544-.177 2.022.33.755.806.199-1.607.199-1.607"></path><path fill="#FFE1BD" d="M421.664 289.298s-3.422 1.107-4.484 1.305c-1.063.198-4.01-.157-5.586 0-.809.082-2.472 1.644-4.06 2.93-1.272 1.454-2.418 2.772-2.072 2.987.713.447 2.514-1.835 3.99-2.9 1.117-.807 2.055-.771 2.566-.416.511.358.285.882-.147 1.158-.432.276-1.416.394-1.494.672-.08.277 0 .814 1.415.546 1.416-.27 2.478-.863 2.95-1.218.47-.356.943-.514 2.005-.634 1.062-.118 6.294-1.05 6.294-1.05"></path><path fill="#01253F" d="M443.948 283.986l-1.075 9.088-.116.917c-.298.015-.58.015-.876.032-1.357.048-2.764.082-4.171.133-10.108.232-20.862.133-20.862.133l-.62-4.04c9.564-2.812 18.952-4.73 24.063-5.646 2.3-.4 3.657-.617 3.657-.617"></path><path fill="#1C44B5" d="M399.732 297.989l-.43.155a1.056 1.056 0 0 1-1.353-.64l-11.115-31.014a1.067 1.067 0 0 1 .639-1.363l.428-.156a1.059 1.059 0 0 1 1.356.64l11.111 31.013c.2.556-.085 1.166-.636 1.365"></path><path fill="#1C44B5" d="M434.364 299.25h-35.03c-.679 0-1.23-.554-1.23-1.236v-.199c0-.684.551-1.237 1.23-1.237h35.03c.68 0 1.23.553 1.23 1.237v.199c0 .682-.55 1.237-1.23 1.237"></path><path fill="url(#r)" d="M402.65 298.85c-4.584-1.88-11.45.2-24.371 3.38-12.938 3.194-15.685.266-15.685.266.462-.983.346-12.566 1.785-26.895.299-3.08.696-6.29 1.16-9.553 1.934-13.263 5.409-27.36 11.895-37.08 3.21-4.809 12.326-7.156 12.326-7.156 4.98 6.125 9.894 13.415 9.877 24.416-.016 11-2.894 21.766-2.48 28.109.445 6.357 5.492 24.514 5.492 24.514" transform="translate(73 33)"></path><path fill="#FFE1BD" d="M412.026 301.135l-.399-3.244s-2.898.378-4.272.21c-1.371-.166-3.01-.9-4.997-1.282-2-.382-2.43.433-2.117.915.38.567 2.632.85 2.632.85s.313.283-.91.283h-1.266c-.593-.096-1.448-.646-1.498-.676a29.77 29.77 0 0 1-.705-.721c-1.309-1.397-2.136-1.839-1.999-.892.14.944 1.173 2.289 1.173 2.289.826.962.983 1.32 2.757 2.243.917.48 3.133.977 4.404 1.24a3.996 3.996 0 0 0 1.736-.046c.775-.188 2.08-.428 3.764-.448 1.104.047 1.792.052 1.792.052 2.465.2 1.161-.35-.095-.773"></path><path fill="#013459" d="M455.832 264.501s-4.051.476-7.943 12.699c-2.176 6.831-3.631 12.035-4.492 15.294a5.412 5.412 0 0 1-5.088 4.047l-28.44.752-.184 5.698s11.101 1.207 18.799 2.31c7.697 1.104 15.236 1.172 19.337.666 7.597-.935 15.048-34.491 14.683-37.92-.571-5.354-6.672-3.546-6.672-3.546"></path><path fill="url(#s)" d="M364.07 202.686s-.728 1.456.885 3.983c.153.238.78.572.853.858.271 1.057.018 2.147-.029 3.03 1.238 4.362 3.053 8.415 5.731 11.256 2.753 1.222 8.123-.698 12.665-3.106.968-.087 6.329-2.738 5.553-10.398-.774-7.659-6.726-14.694-7.13-14.854-.407-.16-12.168 2.014-12.639 2.117-.474.102-5.888 7.114-5.888 7.114" transform="translate(73 33)"></path><path fill="url(#t)" d="M380.998 205.604s-3.111-.692-3.243-4.765c-.131-4.071-.652-4.206-3.131-1.93-2.476 2.275-19.188 11.156-20.624-7.665 1.856.592 6.559-.37 10.963-2.497 2.286-1.107 12.163-9.885 18.698-1.859 3.213-.571 7.66 2.317 8.857 9.635 1.196 7.32-1.449 17.471-4.037 18.563-1.665.704-2.456-1.004-3.076-4.474-.263-1.806 4.423-5.306-.499-9.83-2.034-1.424-6.307 1.117-3.908 4.822" transform="translate(73 33)"></path><path fill="#FFD1AB" d="M461.48 248.087s-.458 5.27 1.481 6.92c-2.985 3.63-9.704 4.174-9.704 4.174s1.53-2.475-1.905-8.9c-3.436-6.425 10.129-2.194 10.129-2.194"></path><path fill="#01253F" d="M452.334 259.877s-.156-2.627 0-3.77c0 0 6.475-2.245 9.59-2.84 0 0 .996.694 1.64 2.548 0 0-6.524 3.282-11.23 4.062"></path><path fill="#FFD1AB" d="M439.01 242.438s-1.088 4.85-.666 6.02c.42 1.171 3.294.413 3.294.413l-2.629-6.433z"></path><path fill="#215991" d="M545.773 138.696v63.898c0 2.595-2.094 4.701-4.674 4.701H398.287a4.693 4.693 0 0 1-4.69-4.701v-63.898a4.693 4.693 0 0 1 4.69-4.701H541.1c2.58 0 4.674 2.106 4.674 4.701"></path><path fill="#1B294E" d="M545.773 138.696v9.2H393.597v-9.2a4.693 4.693 0 0 1 4.69-4.701H541.1c2.58 0 4.674 2.106 4.674 4.701"></path><path fill="url(#u)" d="M466.775 122.614v44.098H326.333v-14.087c5.665-7.819 13.41-13.015 31.13-2.484 17.025 10.12 16.978-22.466 36.436-20.781 19.44 1.685 24.63 30.898 39.722 8.571 15.11-22.327 33.154-15.317 33.154-15.317" transform="translate(73 33)"></path><path fill="url(#v)" d="M326.33 124.234v-1.896H354v1.896h-27.67zm0 3.37v-1.896h46.768v1.896H326.33zm.002 3.37v-1.896h35.11v1.896h-35.11zm-.001 3.37v-1.896h42.37v1.896h-42.37zm0 3.37v-1.895H354v1.895h-27.67z" transform="translate(73 33)"></path><path fill="url(#w)" d="M36.138 36.44a45.485 45.485 0 0 0-8.108 25.984c0 5.173.855 10.144 2.446 14.778l42.818-14.778L36.138 36.44z" transform="translate(73 33)"></path><path fill="url(#x)" d="M79.777 12.68v45.531l33.287 30.837c7.42-8.106 11.977-18.94 11.977-30.837 0-25.141-20.27-45.53-45.264-45.53" transform="translate(73 33)"></path><path fill="url(#y)" d="M73.295 16.893c-15.396 0-28.998 7.735-37.156 19.547l37.156 25.984v-45.53z" transform="translate(73 33)"></path><path fill="#B8ECFF" d="M137.885 140.145c2.73.522 5.528.792 8.41.792 13.167 0 25.01-5.645 33.286-14.677l-33.286-30.836-8.41 44.721z"></path><path fill="url(#z)" d="M30.476 77.202c5.21 15.283 18.31 26.91 34.41 29.943l8.409-44.721-42.819 14.778z" transform="translate(73 33)"></path><path fill="#EBFAFF" d="M476.05 221.935h60.323a3.011 3.011 0 0 1 3.002 3.02v19.157a3.012 3.012 0 0 1-3.002 3.02h-50.015c-.25 2.025-1.665 6.023-8.932 6.023 0 0 2.99-.55 3.615-6.024h-4.99a3.01 3.01 0 0 1-3-3.02v-19.157a3.01 3.01 0 0 1 3-3.02"></path><path fill="url(#A)" d="M446.743 211.401c-.78 0-1.414-.635-1.414-1.422v-16.955c0-.785.633-1.422 1.414-1.422h16.23c.778 0 1.412.637 1.412 1.422v16.955c0 .787-.634 1.422-1.412 1.422h-16.23zm-43.365-17.307a.73.73 0 0 1-.73-.731v-1.028a.73.73 0 0 1 .73-.733h38.633c.404 0 .729.327.729.731v1.03a.729.729 0 0 1-.729.731h-38.633zm8.683 4.327a.645.645 0 0 1-.643-.647v-1.198c0-.357.288-.647.643-.647h30.037c.355 0 .641.29.641.647v1.198a.644.644 0 0 1-.641.647H412.06zm-8.683 4.327a.73.73 0 0 1-.73-.733v-1.028a.73.73 0 0 1 .73-.73h38.633c.404 0 .729.326.729.73v1.028a.73.73 0 0 1-.729.733h-38.633zm3.224 4.327a.7.7 0 0 1-.699-.701v-1.089c0-.387.314-.703.699-.703h35.44a.7.7 0 0 1 .698.703v1.089a.698.698 0 0 1-.697.7h-35.441zm21.25 4.326a.452.452 0 0 1-.45-.453v-1.585c0-.25.203-.454.45-.454h14.438c.25 0 .45.204.45.454v1.585a.451.451 0 0 1-.45.453h-14.437z" transform="translate(73 33)"></path><path fill="url(#B)" d="M269.532 81.659h-40.736s.039-.84.597-2.139c1.55-3.677 7.191-11.111 27.517-14.429l10.032-2.078s23.254-.02 22.748 18.631l.01.007s-2.045 14.758-8.078 24.15v.01l-.157.241c-.052.076-.102.154-.156.231-1.807 2.727-11.845 17.683-18.307 23.623a2975.846 2975.846 0 0 1-15.313 13.96l-5.474-4.842s12.8-17.943 22.364-31.799c.218-.315.43-.574.646-.87 5.413-10.993 5.96-19.711 5.92-23.125-.597-1.125-1.472-1.514-1.613-1.571z" transform="translate(73 33)"></path><path fill="#F29127" d="M342.505 114.659h-40.71s.04-.84.597-2.139c1.49-.48 3.377-.42 4.828-.04 1.49.4 2.483.66 2.483.66h26.485c5.164 0 6.317 1.519 6.317 1.519"></path><path fill="#FFE1BD" d="M327.563 96.907c.689.94 1.13 2.285 1.407 3.471a3.389 3.389 0 0 0 3.48 2.62c8.897-.501 8.305-6.09 8.305-6.09-1.834-2.822-2.948-11.176-2.948-11.176"></path><path fill="#2C1E56" d="M306.743 71.19s-.368 11.229 4.625 11.067c4.996-.163 0-12.385 0-12.385l-4.625 1.318z"></path><path fill="url(#C)" d="M263.59 50.58c.16 1.668.216 3.166.093 4.251a3.486 3.486 0 0 1-.073.46c-.027.145-.052.303-.101.462-1.21 4.81-7.262 11.596-11.514 12.146-.56.05-1.114.06-1.645.032-5.92-.272-9.378-5.153-11.384-10.348a42.39 42.39 0 0 0-.203-.538c-1.768-4.827-2.337-9.788-2.491-11.522-.037-.411-.312-4.836.55-6.147.946-1.443 12.649-2.808 12.892-2.831.243-.02 11.49.795 11.49.795s1.82 7.593 2.385 13.24" transform="translate(73 33)"></path><path fill="#2C1E56" d="M338.412 83.396c.16 1.67-.024 3.084-.144 4.17-.014.144-.039.3-.076.46-.77 4.81-6.619 12.281-13.197 12.873-.508.072-1.005.116-1.468.131-7.12.292-9.593-5.107-11.562-10.447a42.375 42.375 0 0 0-.203-.538s2.478 3.974 3.711 4.095c1.235.123-.298-1.434 3.054-2.75 2.138-.839 5.37-.762 6.882-.574 1.394.185 3.895.903 4.782 1.03.222.02.387.018.511-.045 1.181-.611 4.06-5.153 4.477-7.716.167-.999 2.305-.85 3.233-.689"></path><path fill="url(#D)" d="M231.432 34.725s.363 8.63 14.46 5.178c3.868-.947 7.282-1.833 9.2-.79 2.882 9.117 2.975 13.492 3.996 13.133 1.276-.45-2.182-8.023 2.226-7.205 3.372.625-.147 8.984-.147 8.984s4.1.541 4.22-1.373c.07-1.144.195-17.48-2.596-21.358-2.79-3.877-6.12-3.702-6.12-3.702s-3.529-2.99-11.84-.543c-8.312 2.445-12.69-.642-12.667-.4.02.242-1.322 2.662-.732 8.076" transform="translate(73 33)"></path><path fill="#FFE1BD" d="M316.942 170.473s-2.048 3.559-3.415 4.62c-1.366 1.064-1.923 1.064-3.848 1.562-1.925.5-3.57 2.498-4.13 3.185-.558.686 0 1 1.18.748 1.179-.249 2.702-1.184 3.198-1.184s.496.608 0 1.708-1.863 2.912-2.67 3.537c-.808.625-3.043 1.874-3.29 2.622-.249.75-.063 1.126 1.117.75 1.179-.374 2.546-1.373 3.973-2.123.767-.403 1.124-.856 1.501-1.173.464.121 2.13.52 3.297.34.601-.092 1.132-.384 1.546-.682.164-.035.34-.056.486-.114 1.055-.432 1.613-4.115 2.173-5.116.56-.998 4.625-4.715 4.625-4.715l-5.743-3.965z"></path><path fill="#5FB0E7" d="M312.008 118.315c-.08-.02-.14-.039-.218-.059.238.26.397.459.457.54.218.239.079.399.079.399-.298.32-.556.28-.935.26-.198-.02-.435-.14-.695-.34-.278.24-.516.22-.873.2-.358-.041-.796-.4-1.372-.98.08.16 0 .28 0 .28-.318.3-.576.28-.953.261-.359-.04-.854-.421-1.47-1.08-.199-.2-.477-.539-.775-.9-.278-.198-.538-.379-.755-.519a2.057 2.057 0 0 0-1.153-.379h-.06v-.02c-2.88-.06-4.171-1.32-7.708-1.32h16.034c-.04.02-.06.041-.1.061-.158.06-.555.12-.973.179l.08.08c.217.24.416.48.596.7.634.779 1.489 1.798 1.648 1.958.22.26.08.42.08.42-.298.3-.576.28-.934.26"></path><path fill="#FFE1BD" d="M311.333 118.315c-.08-.02-.14-.039-.22-.059.24.26.397.459.458.54.217.239.078.399.078.399-.296.32-.556.28-.933.26-.197-.02-.437-.14-.695-.34-.278.24-.516.22-.874.2-.357-.041-.794-.4-1.37-.98.078.16 0 .28 0 .28-.319.3-.577.28-.954.261-.358-.04-.856-.421-1.47-1.08-.198-.2-.476-.539-.776-.9-.278-.198-.536-.379-.754-.519a2.057 2.057 0 0 0-1.153-.379h-.06v-.02c-2.88-.06-4.171-1.32-7.708-1.32 0 0 8.264-3.996 13.251-1.159.518.08 1.491.22 2.106.22 1.45.02 1.034.76.576 1-.159.06-.556.12-.973.179l.079.08c.22.24.417.48.596.7.637.779 1.491 1.798 1.65 1.958.218.26.079.42.079.42-.298.3-.576.28-.933.26"></path><g transform="translate(307.983 113.138)"><mask id="G" fill="#fff"><use xlink:href="#E"></use></mask><path fill="url(#F)" d="M2.853 1.58c-.159.06-.558.12-.975.18C1.878 1.76.668.622.17.363.687.442 1.66.58 2.277.58c1.45.02 1.032.76.576 1" mask="url(#G)"></path></g></g></g></svg> 